<mxfile host="app.diagrams.net" modified="2023-11-05T18:38:29.019Z" agent="Mozilla/5.0 (X11; Linux x86_64) AppleWebKit/537.36 (KHTML, like Gecko) Chrome/118.0.0.0 Safari/537.36" etag="ge4Sz2tVHTJn4VZMCzNt" version="22.0.8" type="github">
  <diagram name="Page-1" id="6s6XwodOFt3FXh4c1Ydp">
    <mxGraphModel dx="880" dy="498" grid="1" gridSize="10" guides="1" tooltips="1" connect="1" arrows="1" fold="1" page="1" pageScale="1" pageWidth="827" pageHeight="1169" math="0" shadow="0">
      <root>
        <mxCell id="0" />
        <mxCell id="1" parent="0" />
        <mxCell id="2eX4-YBEClsiIDbdMfTD-3" value="&lt;b&gt;&lt;font style=&quot;font-size: 18px;&quot;&gt;Spotify&lt;br&gt;&lt;/font&gt;&lt;/b&gt;&lt;br&gt;&lt;div style=&quot;&quot;&gt;&lt;span style=&quot;background-color: initial;&quot;&gt;- Audio streaming website/ platform&lt;br&gt;- Listen (main)&amp;nbsp;&lt;br&gt;- Adding a song by artists&amp;nbsp;&lt;br&gt;&lt;/span&gt;&lt;/div&gt;&lt;div style=&quot;&quot;&gt;&lt;span style=&quot;background-color: initial;&quot;&gt;- Globally available&lt;/span&gt;&lt;/div&gt;&lt;div style=&quot;&quot;&gt;&lt;span style=&quot;background-color: initial;&quot;&gt;- Region and Genre selection&lt;/span&gt;&lt;/div&gt;&lt;div style=&quot;&quot;&gt;&lt;span style=&quot;background-color: initial;&quot;&gt;&lt;br&gt;&lt;/span&gt;&lt;/div&gt;" style="rounded=0;whiteSpace=wrap;html=1;align=left;" vertex="1" parent="1">
          <mxGeometry width="210" height="130" as="geometry" />
        </mxCell>
        <mxCell id="2eX4-YBEClsiIDbdMfTD-15" value="" style="group" vertex="1" connectable="0" parent="1">
          <mxGeometry x="300" y="50" width="500" height="450" as="geometry" />
        </mxCell>
        <mxCell id="2eX4-YBEClsiIDbdMfTD-16" value="" style="group" vertex="1" connectable="0" parent="2eX4-YBEClsiIDbdMfTD-15">
          <mxGeometry width="500" height="450" as="geometry" />
        </mxCell>
        <mxCell id="2eX4-YBEClsiIDbdMfTD-5" value="" style="rounded=0;whiteSpace=wrap;html=1;movable=1;resizable=1;rotatable=1;deletable=1;editable=1;locked=0;connectable=1;align=left;" vertex="1" parent="2eX4-YBEClsiIDbdMfTD-16">
          <mxGeometry width="500" height="450" as="geometry" />
        </mxCell>
        <mxCell id="2eX4-YBEClsiIDbdMfTD-6" value="Users&lt;br&gt;" style="shape=umlActor;verticalLabelPosition=bottom;verticalAlign=top;html=1;outlineConnect=0;movable=1;resizable=1;rotatable=1;deletable=1;editable=1;locked=0;connectable=1;" vertex="1" parent="2eX4-YBEClsiIDbdMfTD-16">
          <mxGeometry x="149" y="4.35483870967742" width="27" height="58.064516129032256" as="geometry" />
        </mxCell>
        <mxCell id="2eX4-YBEClsiIDbdMfTD-9" value="User Stories" style="rounded=1;whiteSpace=wrap;html=1;movable=1;resizable=1;rotatable=1;deletable=1;editable=1;locked=0;connectable=1;" vertex="1" parent="2eX4-YBEClsiIDbdMfTD-16">
          <mxGeometry x="188" y="10.161290322580646" width="120" height="58.064516129032256" as="geometry" />
        </mxCell>
        <mxCell id="2eX4-YBEClsiIDbdMfTD-12" value="" style="endArrow=none;html=1;rounded=0;entryX=1;entryY=0.25;entryDx=0;entryDy=0;exitX=0;exitY=0.25;exitDx=0;exitDy=0;" edge="1" parent="2eX4-YBEClsiIDbdMfTD-16" source="2eX4-YBEClsiIDbdMfTD-5" target="2eX4-YBEClsiIDbdMfTD-5">
          <mxGeometry width="50" height="50" relative="1" as="geometry">
            <mxPoint x="380" y="377.4193548387097" as="sourcePoint" />
            <mxPoint x="430" y="304.8387096774194" as="targetPoint" />
          </mxGeometry>
        </mxCell>
        <mxCell id="2eX4-YBEClsiIDbdMfTD-19" value="1. Artists can authenticate themselves using&amp;nbsp;&lt;br style=&quot;border-color: var(--border-color); text-align: left;&quot;&gt;&lt;span style=&quot;&quot;&gt;social login, email and password or they can use mobile number followed by OTP (one-time-password) received on provided phone number.&lt;br&gt;&lt;br&gt;&lt;div style=&quot;text-align: left;&quot;&gt;2. Using portal&amp;nbsp;https://artists.app.com/login&lt;br&gt;&lt;/div&gt;&lt;div style=&quot;text-align: left;&quot;&gt;&lt;br&gt;&lt;/div&gt;&lt;div style=&quot;text-align: left;&quot;&gt;&lt;br&gt;&lt;/div&gt;&lt;div style=&quot;text-align: left;&quot;&gt;&lt;br&gt;&lt;/div&gt;&lt;div style=&quot;text-align: left;&quot;&gt;&lt;br&gt;&lt;/div&gt;&lt;div style=&quot;text-align: left;&quot;&gt;&lt;br&gt;&lt;/div&gt;&lt;div style=&quot;text-align: left;&quot;&gt;&lt;br&gt;&lt;/div&gt;&lt;div style=&quot;text-align: left;&quot;&gt;&lt;br&gt;&lt;/div&gt;&lt;div style=&quot;text-align: left;&quot;&gt;&lt;br&gt;&lt;/div&gt;&lt;div style=&quot;text-align: left;&quot;&gt;&lt;br&gt;&lt;/div&gt;&lt;div style=&quot;text-align: left;&quot;&gt;&lt;br&gt;&lt;/div&gt;&lt;div style=&quot;text-align: left;&quot;&gt;&lt;br&gt;&lt;/div&gt;&lt;div style=&quot;text-align: left;&quot;&gt;&lt;br&gt;&lt;/div&gt;&lt;div style=&quot;text-align: left;&quot;&gt;&lt;br&gt;&lt;/div&gt;&lt;/span&gt;" style="rounded=0;whiteSpace=wrap;html=1;" vertex="1" parent="2eX4-YBEClsiIDbdMfTD-16">
          <mxGeometry x="250" y="113" width="250" height="337" as="geometry" />
        </mxCell>
        <mxCell id="2eX4-YBEClsiIDbdMfTD-14" value="" style="endArrow=none;html=1;rounded=0;exitX=0.5;exitY=1;exitDx=0;exitDy=0;" edge="1" parent="1" source="2eX4-YBEClsiIDbdMfTD-5">
          <mxGeometry width="50" height="50" relative="1" as="geometry">
            <mxPoint x="530" y="360" as="sourcePoint" />
            <mxPoint x="550" y="170" as="targetPoint" />
          </mxGeometry>
        </mxCell>
        <mxCell id="2eX4-YBEClsiIDbdMfTD-18" value="1. Users can authenticate themselves using&amp;nbsp;&lt;br&gt;social login, email and password or they can use mobile number followed by OTP (one-time-password) received on provided phone number.&lt;br&gt;&lt;br&gt;2. Using portal&amp;nbsp;https://accounts.app.com/login&lt;br&gt;&lt;br&gt;&lt;br&gt;&lt;br&gt;&lt;br&gt;&lt;br&gt;&lt;br&gt;&lt;br&gt;&lt;br&gt;&lt;br&gt;&lt;br&gt;&lt;br&gt;&lt;br&gt;&lt;br&gt;" style="rounded=0;whiteSpace=wrap;html=1;align=left;" vertex="1" parent="1">
          <mxGeometry x="300" y="163" width="250" height="337" as="geometry" />
        </mxCell>
      </root>
    </mxGraphModel>
  </diagram>
</mxfile>
